<?xml version="1.0" encoding="UTF-8"?>
<svg version="1.1" xmlns="http://www.w3.org/2000/svg" width="50" height="50">
<path d="M0 0 C0 1.65 0 3.3 0 5 C2.65228812 6.07525194 5.28368454 7.09456151 8 8 C8.804375 7.34 9.60875 6.68 10.4375 6 C11.283125 5.34 12.12875 4.68 13 4 C15.16015625 4.375 15.16015625 4.375 17 5 C16.83242188 5.58007812 16.66484375 6.16015625 16.4921875 6.7578125 C15.164722 11.8492308 14.70874724 15.03561901 17 20 C15.375 20.8125 15.375 20.8125 13 21 C10.75390165 19.53181864 8.97621323 17.84147142 7 16 C3.12047456 18.62948691 3.12047456 18.62948691 1.1875 22.75 C1.0946875 23.86375 1.0946875 23.86375 1 25 C-3.75 24.25 -3.75 24.25 -6 22 C-7.96481494 21.54154318 -9.92963714 21.08311739 -11.89453125 20.625 C-15.79836654 19.46616207 -19.0556099 17.62644961 -21.125 14.0625 C-20.92716137 10.79816259 -19.1796638 9.37136062 -17 7 C-13.90625 4.98046875 -13.90625 4.98046875 -10.5 3.1875 C-9.3759375 2.58292969 -8.251875 1.97835938 -7.09375 1.35546875 C-4 0 -4 0 0 0 Z " fill="#F5F5F5" transform="translate(27,12)"/>
</svg>
